<svg width="28" height="28" viewBox="0 0 28 28" fill="none" xmlns="http://www.w3.org/2000/svg">
<g clip-path="url(#clip0_1011_142)">
<path d="M14.0215 2.93302C17.1472 6.9011 18.8158 11.7944 18.7553 16.8155V18.0141L19.7865 18.6416C21.119 19.4482 22.1127 20.6993 22.5866 22.1669C22.1705 21.8605 21.7352 21.5803 21.2833 21.3278L18.5333 19.7838L18.0391 22.9001C17.9963 23.1755 17.9389 23.4485 17.8672 23.718H10.1615C10.0469 23.3655 9.95382 23.0129 9.86789 22.6463L9.24484 19.8261L6.70968 21.2362C6.28615 21.473 5.87723 21.7344 5.48507 22.0188C5.96824 20.5682 6.94123 19.3242 8.24224 18.4935L9.22336 17.866V16.7521C9.24106 11.7513 10.9297 6.89523 14.0287 2.93302H14.0215ZM14.0287 0C13.868 0.000390307 13.7128 0.0579856 13.5918 0.162162L13.5274 0.218566C9.39778 4.76564 7.10466 10.6454 7.08208 16.745C5.32967 17.8643 4.03251 19.5543 3.41726 21.5197C2.80202 23.485 2.90783 25.6007 3.71619 27.4971C4.56776 25.6455 5.99131 24.1058 7.7839 23.0975C7.96368 23.8642 8.2031 24.6161 8.50005 25.3467C8.53771 25.4871 8.62118 25.6114 8.73763 25.7006C8.85408 25.7898 8.99706 25.8388 9.14458 25.8402H19.0847C19.2852 25.8402 19.4857 25.6498 19.586 25.3537C19.8758 24.6592 20.0778 23.9322 20.1875 23.1892C21.9836 24.1932 23.4083 25.7342 24.2553 27.5887C25.1124 25.7017 25.2451 23.5727 24.6287 21.5967C24.0124 19.6206 22.6888 17.9319 20.9037 16.8437C20.9745 10.7082 18.6935 4.77179 14.5157 0.218566C14.4535 0.150085 14.3773 0.0952397 14.2922 0.0575871C14.2071 0.0199344 14.1149 0.000314749 14.0215 0L14.0287 0Z" fill="#4EA8DE"/>
<path d="M14.0216 16.1598C13.4715 16.1598 12.9338 15.9995 12.4761 15.699C12.0185 15.3986 11.6614 14.9715 11.4499 14.4716C11.2385 13.9716 11.1821 13.4213 11.2878 12.8898C11.3936 12.3584 11.6568 11.8697 12.0442 11.4853C12.4317 11.1009 12.9261 10.838 13.465 10.7298C14.004 10.6216 14.5634 10.6729 15.0728 10.8773C15.5822 11.0816 16.0188 11.4298 16.3275 11.8781C16.6361 12.3263 16.8031 12.8545 16.8074 13.396V13.396C16.8159 13.7469 16.7542 14.0961 16.6256 14.4235C16.4971 14.751 16.3043 15.0503 16.0582 15.3043C15.8121 15.5583 15.5176 15.7622 15.1915 15.9041C14.8654 16.0461 14.5141 16.1234 14.1576 16.1316C14.1126 16.1387 14.0666 16.1387 14.0216 16.1316V16.1598Z" fill="#4EA8DE"/>
</g>
<defs>
<clipPath id="clip0_1011_142">
<rect width="22" height="28" fill="white" transform="translate(3)"/>
</clipPath>
</defs>
</svg>
